/* XPM */
static char *b52e3d28fb0d495d88a3df29b907a707Ny5nCVy9rPXX6Nou[] = {
/* columns rows colors chars-per-pixel */
"40 40 92 1 ",
"  c #6A4C2F",
". c #6E4D2E",
"X c #714F2F",
"o c #694C31",
"O c #6D4E30",
"+ c #694F36",
"@ c #6D5237",
"# c #6C533B",
"$ c #755230",
"% c #795532",
"& c #7D5733",
"* c #7E5833",
"= c #7E5B37",
"- c #755739",
"; c #7E5D3D",
": c #6E5842",
"> c #74604B",
", c #676058",
"< c #766351",
"1 c #796856",
"2 c #7F7061",
"3 c #73716F",
"4 c #815A35",
"5 c #845D36",
"6 c #835D39",
"7 c #815E3C",
"8 c #83603D",
"9 c #806041",
"0 c #816346",
"q c #83674B",
"w c #876D54",
"e c #89715B",
"r c #817264",
"t c #8E7966",
"y c #877A6C",
"u c #8D7B68",
"i c #958473",
"p c #92867A",
"a c #97887A",
"s c #8C8884",
"d c #8B8B8A",
"f c gray55",
"g c #968B80",
"h c #9A8D81",
"j c gray57",
"k c gray59",
"l c #9A9A9A",
"z c gray62",
"x c #A09488",
"c c #A1978E",
"v c #A59D96",
"b c #A89F95",
"n c gray63",
"m c #A5A5A5",
"M c gray67",
"N c #AFAFAF",
"B c #B3AAA1",
"V c #BAB2AC",
"C c #B1B1B1",
"Z c gray71",
"A c #BCB7B2",
"S c #BBBBBB",
"D c gray74",
"F c #C1BCB6",
"G c #C7C3BF",
"H c gray76",
"J c #C5C5C5",
"K c #CCC8C5",
"L c #CBCBCB",
"P c #CDCDCD",
"I c #D3D0CD",
"U c #D4D1CE",
"Y c #D0D0D0",
"T c #D6D3D1",
"R c #D7D5D2",
"E c #D5D5D5",
"W c #DADADA",
"Q c #DFDDDB",
"! c #DFDFDF",
"~ c #E0DEDC",
"^ c gray88",
"/ c #E5E5E4",
"( c #E9E8E7",
") c gray91",
"_ c #ECEBEA",
"` c #EDECEB",
"' c #EFEFEF",
"] c #F3F3F3",
"[ c gray97",
"{ c #F8F7F7",
"} c #F9F9F9",
"| c white",
/* pixels */
"||||||||||||||||||||||||||||||||HD}|||||",
"|||||||||||||||||||||||||||||||HM]H/||||",
"||||||||||||||||||||||||||||||Wn]D'YY|||",
"|||||||||||||||||||||||||||||}f|||J!^H||",
"|||||||||||||||||||||||||||||EL||||WLS||",
"|||||||||||||||||||||||||||||EH||||'f|||",
"||||||||||||||||||||||||||||||3^||]j'|||",
"|||||||||||||||||||||||||||||h=,mMf/||||",
"||||||||||||||||||||||||||||B6.B}}||||||",
"|||||||||||||||||||||||||||K8$g|||||||||",
"||||||||||||||||||||||||||Q;%r||||||||||",
"|||||||||||||||||||||||||(q&<]||||||||||",
"||||||||||||||||||||||||}t4#~|||||||||||",
"||||||||||||||||||||||||a5oU||||||||||||",
"|||||||||||||||||||||||b5OA|||||||||||||",
"||||||||||||||||||||||F6Xc||||||||||||||",
"|||||||||||||||||||||R9%y|||||||||||||||",
"||||||||||||||||||||/0&1{|||||||||||||||",
"|||||||||||||||||||]e=:_||||||||||||||||",
"|||||||||||||||||||i4@T|||||||||||||||||",
"||||||||||||||||||x5 G||||||||||||||||||",
"|||||||||||||||||V6Xv|||||||||||||||||||",
"|||||||||[||||||I7$p||||||||||||||||||||",
"||||||||YdJ||||Q9%2|||||||||||||||||||||",
"|||||||^MNZm||'w*>`|||||||||||||||||||||",
"||||||[H]WMHl)u4+~||||||||||||||||||||||",
"||||||D]]])MJd-oK|||||||||||||||||||||||",
"|||||S]]]]]]SZMs||||||||||||||||||||||||",
"||||H^]]]]]]]YMDn|||||||||||||||||||||||",
"|||!C]]]]]]SH]^mJz!|||||||||||||||||||||",
"|||NJ]]]]]]LP]]'NSmP||||||||||||||||||||",
"||'NH]]]]]]]]]]]]JkY||||||||||||||||||||",
"||DDH/]]]]]]]]]]]WY|||||||||||||||||||||",
"||HDHY]]]]]]]]]]/H||||||||||||||||||||||",
"||'mHH/]]]]]]]]/Z|||||||||||||||||||||||",
"|||NHHH^]]]]]'Wm||||||||||||||||||||||||",
"|||!CHHHLW!!YHm'||||||||||||||||||||||||",
"||||PMHHHHHHHn^|||||||||||||||||||||||||",
"|||||!NmHHDmZ}||||||||||||||||||||||||||",
"|||||||]JEY|||||||||||||||||||||||||||||"
};
