/* XPM */
static char *bb487016966f4306812c47f51224b4acpbtQOS6PQBE41APG[] = {
/* columns rows colors chars-per-pixel */
"32 32 191 2 ",
"   c #151115",
".  c #241015",
"X  c #341416",
"o  c #3D2014",
"O  c #431518",
"+  c #542926",
"@  c #4F3526",
"#  c #483428",
"$  c #543827",
"%  c #5B3A23",
"&  c #5E3A36",
"*  c #623937",
"=  c #643A38",
"-  c #6A3F3E",
";  c #753531",
":  c #703834",
">  c #5E422D",
",  c #4C4037",
"<  c #5B4938",
"1  c #6F4C2B",
"2  c #684832",
"3  c #65413B",
"4  c #6A403D",
"5  c #644D3C",
"6  c #694B3B",
"7  c #6A523D",
"8  c #785739",
"9  c #7C5B3D",
"0  c #6C4442",
"q  c #624D41",
"w  c #6B4D43",
"e  c #724B46",
"r  c #744D4A",
"t  c #625244",
"y  c #6D5C4C",
"u  c #745A43",
"i  c #70514C",
"p  c #79524D",
"a  c #7B5B4D",
"s  c #7A5451",
"d  c #7F5A56",
"f  c #77614A",
"g  c #7C634C",
"h  c #7C6652",
"j  c #7C6A59",
"k  c #7E715F",
"l  c #8D3B36",
"z  c #85603D",
"x  c #89653D",
"c  c #926438",
"v  c #834A43",
"b  c #805D41",
"n  c #815F4C",
"m  c #805C54",
"M  c #835E5A",
"N  c #836345",
"B  c #896744",
"V  c #8D6C47",
"C  c #87674A",
"Z  c #86694C",
"A  c #8B6B4A",
"S  c #916D44",
"D  c #996F46",
"F  c #926D49",
"G  c #996F48",
"H  c #95724D",
"J  c #9D754A",
"K  c #866454",
"L  c #886756",
"P  c #876E52",
"I  c #85625B",
"U  c #896E5E",
"Y  c #8B7154",
"T  c #8B735B",
"R  c #967651",
"E  c #987655",
"W  c #9C7C55",
"Q  c #99735C",
"!  c #947C5F",
"~  c #A37B4E",
"^  c #A66758",
"/  c #A27D50",
"(  c #886661",
")  c #8F6E64",
"_  c #927D64",
"`  c #987F62",
"'  c #93736A",
"]  c #957670",
"[  c #9C7E73",
"{  c #A77964",
"}  c #9C815D",
"|  c #A48155",
" . c #AC8556",
".. c #A4845C",
"X. c #AD8758",
"o. c #AD895D",
"O. c #B28C5D",
"+. c #978267",
"@. c #9C8364",
"#. c #9A8468",
"$. c #9F8A71",
"%. c #9D837A",
"&. c #A38563",
"*. c #A68964",
"=. c #AB8B63",
"-. c #A3836F",
";. c #AA8E6B",
":. c #B08E65",
">. c #B4826B",
",. c #AE9067",
"<. c #A7906F",
"1. c #AD916C",
"2. c #B59264",
"3. c #BB9464",
"4. c #B4946C",
"5. c #B8976F",
"6. c #BD9B6D",
"7. c #A28375",
"8. c #A48C74",
"9. c #A38C7C",
"0. c #AA8E7A",
"q. c #B98B73",
"w. c #AB9371",
"e. c #A6947B",
"r. c #A9977E",
"t. c #B29673",
"y. c #B49974",
"u. c #BC9C73",
"i. c #B19778",
"p. c #B59C7A",
"a. c #B99E7C",
"s. c #BDA27D",
"d. c #C29E6E",
"f. c #C09F72",
"g. c #C3A276",
"h. c #C3A47C",
"j. c #C8A678",
"k. c #A98D81",
"l. c #AB9585",
"z. c #B69D83",
"x. c #BB9C80",
"c. c #B39B89",
"v. c #BDA483",
"b. c #BFA887",
"n. c #B5A388",
"m. c #BAA58B",
"M. c #B8A291",
"N. c #BBAA93",
"B. c #C2A682",
"V. c #C4A984",
"C. c #CBAE86",
"Z. c #C0A589",
"A. c #C3AC8C",
"S. c #C8AE8A",
"D. c #CFB285",
"F. c #C6B18F",
"G. c #CCB28B",
"H. c #D1B487",
"J. c #D1B58B",
"K. c #C3AD93",
"L. c #C3AF9C",
"P. c #C5B294",
"I. c #CDB592",
"U. c #CDB895",
"Y. c #C5B39C",
"T. c #CBB69A",
"R. c #CDBA9C",
"E. c #D1B793",
"W. c #D2B993",
"Q. c #D2BC9A",
"!. c #C5B2A3",
"~. c #CEBBA1",
"^. c #CBB9A8",
"/. c #D2BEA0",
"(. c #D6C19C",
"). c #D9C39D",
"_. c #CFC1A6",
"`. c #D4C3A4",
"'. c #D9C5A4",
"]. c #DBC9A6",
"[. c #D2C4AB",
"{. c #D9C7AA",
"}. c #D7C8AF",
"|. c #DCCAAC",
" X c #D6C9B2",
".X c #DDCEB2",
"XX c #E0CEAE",
"oX c #E1D2B3",
"OX c #E6D8BF",
"+X c #E7DAC1",
"@X c #EADDC6",
/* pixels */
"* * * * * = - - - - - - - - - - - - - - - - - - * * * * * * * * ",
"* * * * * = - - - 4 - 0 s ' 9.l.l.k.' M 0 - = = * * * * * * * * ",
"* * * * * * - - - r ' c.Y.T.I.I.Q.Q.R.~.M.' 0 = * * * * * * * * ",
"* * * = - - - - I Y.{.T.s.&.o.2.q.5.5.V.Q.}.L.I = * * * * * * * ",
"= * = = - - - M F.G.s.,.< 5 6.s.f.*.q U V.S.E.I.) * * * * * * * ",
"- - - - - - p v.j.x } y.w.n.e.8.A.K.h a y.g.g.3.B.e * * * * * * ",
"- - - - - - [ G.=.9 F.(.`.k     t A.E.E.Q.U.B.D 3.' * * * * * * ",
"- - - - - 0 7.C...Z P.R.Y.j     y b.'.`.'.].A.9 D 7.= * * * * * ",
"- - - - - - e z./ N y.<.j w X . w e.9.e.'./.I.E c Q = = = = * = ",
"- - - - - - = ) -.R 1.4.7 + + O : & 6 y.Q.J.E.w.D { - - - - - - ",
"- - - - - - = r c.t.1.,...e ; ; v n A.Q.G.C.Q.0.e p - - - - - - ",
"- - - - = = = e n.F.y.1.1.^ l l { A.T.I.V.C.T.m 4 4 - - - - - - ",
"- - - - = * 0 %._.T.v.;.i.s.>.q.Z.A.x.B.V.E.~.d - - - - - - - - ",
"- - - - = * ] }.U.P.n.s.p.n.N.b.i.a.B.C.U.)..X[ - - - - - - - - ",
"- - - - = = %.}.F.s.y.p.s.i.y.s.;.t.V.g.G.'.oX^.s - - - - - - - ",
"- - - - - p !. XP.b.s.<.w.w.s.t.t.Z.V.f.J.].|.OXL.p - - - - - - ",
"- - - - - '  X`.R.T.b.p.<.s.s.s.B.S.F.T.Q.'.oX+XOX^.M - - - - - ",
"- - - 0 - %. XR.b.b.P.b.F.I.V.s.t.Z.S.I.Q.Q.oX+X+X@XL.s - - - - ",
"- - - - - ( [.[.F.b.R.R.T.A.y.t.u.V.S.F.U.(.{.+XoXoXoXm.r - - - ",
"- - - - - s !.~.b.P._._.F.p.s.s.v.Z.B.V.C.Q.'.oXoX).(.|.k.0 - - ",
"- - - - - p K.y.*.b._._.F.t.1.;.y.a.B.V.S.U.Q.oXXXE.J.).{.' - - ",
"- - - - - I K...H @.N.~.N.s.;.=...=.u.h.h.h.C..X/.H.H.).].L.r - ",
"- - - - 4 I A.} x 9 $.Y.P.b.w.<.*.=.4.:.u.g.J.|./.J.J.W.).XX[ - ",
"= = - - 4 ) b.} x 1 T N.N.N.<.} } =.=.O.6.h.I.`.G.f.f.j.D.Q.~.m ",
"= = - - - ' p.W A 8 Z 8.r.r.@.P A ....o.3.f.G.I.d.3.d.3.d.d.H.a.",
"* * = = - [ y.W F B Y #._ ! Y u N W / X.:.f.E.V.O./ ~ ~  .d.E.{.",
"* * 0 m ' n.1.R R C u h f g Z 8 B H / X.3.h.S.:.J G J  .u.G.Q.{.",
"* I 8._ +.v...H F 8 # # $ 5 > > V D ~ O.u.V.i.G J / q.f.V.C.`.c.",
"* a t , l.b.*.E A 7 f P 9 % o $ B S W O.f.x.E F / &.;.p.a.V.z.I ",
"* * & i b.z.+.P u _ ;.*.A % o 8 x x ~ O.V.` 8 b K n K L K m e - ",
"* * * = d L a 6 3 a Z g 2 @ 8 W z F | u.<.e 4 = = = * * - - - - ",
"* * * * - - - - - - - - 4 u ! @.T <.&.z.p * * * = = - - - - - - "
};
