/* XPM */
static char *ec3381ababf24b93e3e6e23f94da086cTYkHb7x59sn70avr[] = {
/* columns rows colors chars-per-pixel */
"40 40 202 2 ",
"   c #22333E",
".  c #1C473E",
"X  c #234E3B",
"o  c #275E34",
"O  c #25742E",
"+  c #266536",
"@  c #256B3C",
"#  c #287636",
"$  c #287B31",
"%  c #25733D",
"&  c #1E4C43",
"*  c #204B46",
"=  c #2D454A",
"-  c #31454A",
";  c #215146",
":  c #225A44",
">  c #215148",
",  c #2A544C",
"<  c #3A594A",
"1  c #255C52",
"2  c #236241",
"3  c #266947",
"4  c #2A7449",
"5  c #296750",
"6  c #296257",
"7  c #44524C",
"8  c #50594C",
"9  c #555E5D",
"0  c #7F4E40",
"q  c #71564F",
"w  c #455D67",
"e  c #4C7D69",
"r  c #4E6E75",
"t  c #53767B",
"y  c #AD3C1B",
"u  c #96511B",
"i  c #98501C",
"p  c #AD411C",
"a  c #80651F",
"s  c #B44724",
"d  c #896227",
"f  c #8F6F3B",
"g  c #CF6F3C",
"h  c #B96E55",
"j  c #A56E61",
"k  c #C86A47",
"l  c #C97C42",
"z  c #D37C49",
"x  c #CA7659",
"c  c #27892E",
"v  c #279F22",
"b  c #2B9E23",
"n  c #2D942A",
"m  c #269B29",
"M  c #2D9A2B",
"N  c #319B21",
"B  c #3A9E2C",
"V  c #2B8533",
"C  c #2B8A32",
"Z  c #2A823A",
"A  c #368D3C",
"S  c #369B37",
"D  c #27A223",
"F  c #2CA525",
"G  c #2DAB26",
"H  c #2DA62A",
"J  c #27A928",
"K  c #2EAD29",
"L  c #32A525",
"P  c #38A726",
"I  c #32AB26",
"U  c #38A927",
"Y  c #30A529",
"T  c #33AD2A",
"R  c #39AC29",
"E  c #2EB227",
"W  c #2DB22A",
"Q  c #2EBA2B",
"!  c #32B227",
"~  c #33B827",
"^  c #33B32A",
"/  c #39B42D",
"(  c #34BA2B",
")  c #39BB2C",
"_  c #36AE32",
"`  c #3BAD33",
"'  c #3FAA39",
"]  c #2FBB30",
"[  c #35B232",
"{  c #3BB433",
"}  c #3CBC33",
"|  c #3FB339",
" . c #3FBD39",
".. c #4D9933",
"X. c #559C39",
"o. c #609A2F",
"O. c #65913E",
"+. c #47A834",
"@. c #4AAB33",
"#. c #42BA36",
"$. c #47B638",
"%. c #42B33C",
"&. c #43BA3A",
"*. c #5BB63C",
"=. c #37C12B",
"-. c #3EC035",
";. c #46C13C",
":. c #3A8D44",
">. c #419F4B",
",. c #4A955C",
"<. c #7C874B",
"1. c #709147",
"2. c #4BB743",
"3. c #48B646",
"4. c #4BBB43",
"5. c #53BB4B",
"6. c #58BC57",
"7. c #67A04D",
"8. c #69B44B",
"9. c #7EB958",
"0. c #4C9361",
"q. c #519266",
"w. c #5EB562",
"e. c #62B768",
"r. c #72B36B",
"t. c #6DBA76",
"y. c #76B979",
"u. c #4BC242",
"i. c #4EC54A",
"p. c #53C24B",
"a. c #56C34A",
"s. c #5AC754",
"d. c #64C55D",
"f. c #6AC962",
"g. c #70CA6A",
"h. c #71D066",
"j. c #76CB72",
"k. c #968536",
"l. c #B9803E",
"z. c #87844B",
"x. c #868D53",
"c. c #8A8E54",
"v. c #898F59",
"b. c #9B8E54",
"n. c #8A9056",
"m. c #899159",
"M. c #979258",
"N. c #A28C56",
"B. c #AF8D50",
"V. c #AA935C",
"C. c #B79456",
"Z. c #92A549",
"A. c #85B35B",
"S. c #A1AD56",
"D. c #A68D74",
"F. c #98B864",
"G. c #B9A96A",
"H. c #AFBB6D",
"J. c #A1B17E",
"K. c #D5844A",
"L. c #CF8A56",
"P. c #C29557",
"I. c #DA9B50",
"U. c #D69A5B",
"Y. c #E28048",
"T. c #E79856",
"R. c #E39D5D",
"E. c #EC9C5C",
"W. c #F79857",
"Q. c #F59B5A",
"!. c #CFA754",
"~. c #EBA15E",
"^. c #F3A15F",
"/. c #FBA25E",
"(. c #CB8F6E",
"). c #D28A6C",
"_. c #C89E6F",
"`. c #CC9975",
"'. c #C9AB6F",
"]. c #DBA570",
"[. c #FCA361",
"{. c #EBA579",
"}. c #E1B37C",
"|. c #82D37D",
" X c #7DBE8B",
".X c #AF9A88",
"XX c #92B88F",
"oX c #B7AC9D",
"OX c #A7B6AE",
"+X c #C49E80",
"@X c #CDBF8B",
"#X c #DCB288",
"$X c #E5AC84",
"%X c #F2AB86",
"&X c #E2B384",
"*X c #F4B28A",
"=X c #EBBD93",
"-X c #F9BA95",
";X c #F9BE9C",
":X c #E4C08C",
">X c #F7C39D",
",X c #FDC3A1",
/* pixels */
"5.{ #.&.;.} ;.u.u.p.|.f.f.2.2.5.a.u.s.s.u.u.#.4.{ 4.&.6.| %.R ` / %.p.5.5.2.d.5.",
"[ ^ ( ) ) ) -. . .i.u.#.&.2.{ [ %.0.q.,.>.` ) { ^ ^ / / Y H F K Y ! T T ^ { { / ",
"_ ^ ( / ( ) ) (  . .u.{ ^ ^ / { ,.t t t t w S ^ ~ W K K F F F G G G G K T ^ / R ",
"_ &.} ) ) } ) { ;.s.4.{ ^ / { ' e t t t r w :.W Q ! W G G J F G G G G G I I I ^ ",
"j.5.g.a.&.#.;.#.p.4.4.{ [ A , = - 9 .XD.0 q S ^ ~ ! G G K J F F F G J G ^ ^ ! I ",
"h.j.|.d.s.2.a.5.[ 5.R T / &.S A N.(.,Xk s p / @.Z.1.+.G G G G F L G G G ^ ^ I ^ ",
"4.4.4.p.p.&.R R T H K R R T ^ 8.,X,X;Xk ;XB.*.!.P.n.x...G J F G I G I W ^ / ^ ^ ",
"T _ _ T R R T ^ Y H H T T ^ I F.;X*Xx s ).%X`.E.U.n.n.<.B F I L I I ^ ^ { ( ( ( ",
"T Y K K Y T Y T F F K T ^ I F I i h x y g V.M.U.[.V.n.c.O.L F I I T / ~ ~ ( #.) ",
"F G F F H H K T F F ~ ~ ! T F G i y y y Y.N.n.b./.^.M.n.<.B F G ^ ~ G ^ ~ / ~ ) ",
"Y T F F Y T R Y T Y ~ ! ! G G K a u d f /.U.x.n.P.[.R.n.x...G G W ^ / / ! ~ ~ / ",
"K T Y H T Y Y R ^ ^ ~ K G F K K ^ T X.<.P.[.b.c.c.E./.C.n.1.J J F E ~ ) ! E ^ ~ ",
"T ^ _ %.` R ^ U T / / / ^ K K H ^ #.+.x.z.E.U.x.c.N./.Q.M.n.B J F F Q ( ~ ! ~ / ",
"` &.^ ( ^ ( ( { R / / / R T 3.T ^ / ` n.v.B.[.b.c.c.T.Q.}.:XS.o.K G J E ~ E ! I ",
"T K W ( ( ( ^ / / / ) / { 2.{ 3.w.r.XXOX.Xl *X$X_.{.*X-X,X>X'.l.K G G G G G G ^ ",
"K W ( Q ( ( } / / %.2.6.y.J.+X(.z l oXOXD._.@X-X%X$X#X%X{.].K.l G F F G F I / ( ",
"Q Q [ Q 3.6.t. X Xt.e.3.8.=X].G.&X=X>X'.m.7.$.~.K.V.c.T.Q.T.K.k.F G F F G G ^ ~ ",
"W K K W t.e.3.^ K T T ( } 8.9.8.A.A.H.H.@.^ R C.h `.G.E.Q./.I.R F F F F F G I ~ ",
"^ K K T K K T ^ ^ K ^ T ( ^ W Q G J H A % 2 : > > 7 j Q.W.W.T.@.F F E F G F F ~ ",
"W ^ W K ^ T T T ^ ^ R ^ ^ ^ ^ K W / 5 6 > > > > > > > L.W.Q.R.*.W ! ^ G G G W ^ ",
"( ^ ^ K K / T G T K Y F R K K W ^ ~ 6 1 ; > > > > > > < < 8 q O.W ~ ^ W ~ G K K ",
"( ( ( K T ^ T T K Y H F U F K T ( ( 6 1 > 2 # V V # > > > > > M ^ ^ K W ^ W G W ",
"Q Q ( ^ ( ^ T ^ T U T L T Q ~ ^ ~ ( 6 > > M F I L C > > > > % ^ W K K T ^ W K ^ ",
"W W K ^ W L Y T P T T U I W Q ( ( / 1 > > V Y I I % > > > : T W K K T K K ^ ^ ^ ",
"Q W I G F F I I P R I U T ^ ^ ( / R : > > @ F I I 3 > 1 > C I I G / / K ^ K K ~ ",
"W W E E I G I P U R U I P I ~ ^ T U @ > > : L L M 6 & 1 3 L I I ^ ^ / ^ W W W ^ ",
"K Q Q G G G I I P T P P P P T ) T ^ n ; * V L F C 1 . . c I I ! I ^ ~ W W W W W ",
"K Q Q W G I G I I ^ L P L I G ^ ) ! I +   n F L Z 1 & + T T I I I T ^ / ~ Q W ~ ",
"^ ) ( ^ G G G ^ ! G I I G ^ ~ ^ / / E n   n F F 4 1 > V K I U ^ ^ / ^ ( ( Q ( Q ",
"( ) ( I G T ^ ^ / ^ ^ { ~ ~ / / / ! G F X n L b 5 > > % G F F I / / / ( ] ( ~ ( ",
") ( ( K T K ( ^ ( / [ { ( ) ^ G G G K G O o N N Z > > > C G I I T / / / ( ( ^ T ",
"/ ( { Y T ( ( ( ) / / { ( } ^ F J F G J $ O F L Y : > > 2 F T I T T / R ^ ^ ^ ^ ",
"R T T / ^ ~ Q ( ) / ( ( ) ( ( I K G G K c m F F J V > > : Y ^ ^ ^ ( ^ ^ ^ ^ I R ",
"( T T ^ ~ ^ ~ ( ( ) ) ( ( ( / ^ ^ G F F m F J J J J @ * X I W ~ ^ ^ ^ ^ T I Y Y ",
"( ^ ^ T ( ^ ( =.( ( ( ) ) ( ( ~ G F v F D J F F J G G $   M T ^ T T Y T U L I Y ",
") T T ~ ! ( ( ( ( ) ) ( ( ( ! ! G F F D F F F G F G E W $ $ W W G T ^ ^ T T ^ ^ ",
"T I I ) / ^ / ) ) / / ( ( ! ! I G F D v v b F F G J E ( ~ + C W W W G G ) ) ) ) ",
"I I I ^ ! G G =.) ) E Q ! ^ ! ! ^ F D D D b L L I G E ~ Y + K W W K W K G ! G ^ ",
"G I I I ! G E ( ) ~ E E I ! E ! ~ I F F F F L L L I ~ ~ H K ! W E K Q E G G ^ ^ ",
"E I I I I T / W ~ J K ^ ! ! I I ^ ! T L L L I G I ^ K Q ~ ( K W ^ ~ E Q E G G K "
};
