/* XPM */
static char *_f3ab2a5b7db47a9e4bc133e94de0755vfXUk8xm7SlapVow[] = {
/* columns rows colors chars-per-pixel */
"40 40 175 2 ",
"   c #2C170B",
".  c #2E190C",
"X  c #341C0D",
"o  c #3A1D0D",
"O  c #341D10",
"+  c #391F10",
"@  c #37200F",
"#  c #3D200F",
"$  c #372113",
"%  c #3B2213",
"&  c #3D261A",
"*  c #1B1E21",
"=  c #331F21",
"-  c #1E2224",
";  c #222325",
":  c #2A2726",
">  c #2B2926",
",  c #222629",
"<  c #262A2D",
"1  c #2B2C2D",
"2  c #332B23",
"3  c #373028",
"4  c #3E362E",
"5  c #292E31",
"6  c #373133",
"7  c #431D0A",
"8  c #49210C",
"9  c #422513",
"0  c #4A2612",
"q  c #472914",
"w  c #4D2A15",
"e  c #43261A",
"r  c #492719",
"t  c #442A1D",
"y  c #4A2B1D",
"u  c #502710",
"i  c #532C15",
"p  c #5A2E15",
"a  c #522C1D",
"s  c #5E3217",
"d  c #563219",
"f  c #5B3319",
"g  c #613519",
"h  c #66391C",
"j  c #6B3E1E",
"k  c #462723",
"l  c #462E21",
"z  c #443224",
"x  c #4A3224",
"c  c #403428",
"v  c #4F3729",
"b  c #543627",
"n  c #5C3523",
"m  c #543C2C",
"M  c #402E30",
"N  c #473639",
"B  c #563C36",
"V  c #603421",
"C  c #653D22",
"Z  c #6C3F20",
"A  c #603537",
"S  c #6F431F",
"D  c #70441F",
"F  c #5B4334",
"G  c #6A4527",
"H  c #724522",
"J  c #764923",
"K  c #7B4C26",
"L  c #734C2B",
"P  c #7E4E29",
"I  c #7E512B",
"U  c #654735",
"Y  c #634A3B",
"T  c #724F39",
"R  c #775134",
"E  c #7D5431",
"W  c #5D3F42",
"Q  c #554A47",
"!  c #6C4A45",
"~  c #72474C",
"^  c #724E4D",
"/  c #6B564D",
"(  c #745746",
")  c #735949",
"_  c #7B5D4D",
"`  c #7B4E51",
"'  c #7C5355",
"]  c #7C5B53",
"[  c #7D6251",
"{  c #83532C",
"}  c #88572E",
"|  c #8A592E",
" . c #845632",
".. c #8D5C32",
"X. c #845A3B",
"o. c #8A5F3D",
"O. c #905E33",
"+. c #8B603C",
"@. c #946235",
"#. c #996537",
"$. c #966539",
"%. c #9A6739",
"&. c #9C6A3B",
"*. c #A26D3D",
"=. c #A7713F",
"-. c #A8723F",
";. c #815B45",
":. c #895A5F",
">. c #8A6348",
",. c #8B674F",
"<. c #9F6F40",
"1. c #916949",
"2. c #836455",
"3. c #896655",
"4. c #846857",
"5. c #866B5A",
"6. c #8A6D5D",
"7. c #8E705E",
"8. c #A26F40",
"9. c #A47242",
"0. c #AA7441",
"q. c #AF7844",
"w. c #B07945",
"e. c #B37E49",
"r. c #8F5C62",
"t. c #915D63",
"y. c #927564",
"u. c #977B6A",
"i. c #9A7D6C",
"p. c #B7814A",
"a. c #BD874F",
"s. c #9E816F",
"d. c #9F8170",
"f. c #A48674",
"g. c #A68977",
"h. c #A68A79",
"j. c #AA8C7B",
"k. c #AB907F",
"l. c #958B85",
"z. c #9A8F88",
"x. c #9D9189",
"c. c #AE9281",
"v. c #B09585",
"b. c #B29887",
"n. c #B49B8B",
"m. c #A49891",
"M. c #B79F90",
"N. c #ADA099",
"B. c #BAA294",
"V. c #B6A498",
"C. c #BDA698",
"Z. c #BAADA5",
"A. c #C0AB9E",
"S. c #C3AEA1",
"D. c #C5B1A6",
"F. c #C9B6AB",
"G. c #CDBDB3",
"H. c #D3C4BB",
"J. c #D7C9C1",
"K. c #DACEC6",
"L. c #DED2CB",
"P. c #E1D6D0",
"I. c #E4DAD5",
"U. c #E7DFDA",
"Y. c #E9E2DD",
"T. c #ECE6E2",
"R. c #EFEAE7",
"E. c #F2EEEC",
"W. c #F5F1EF",
"Q. c #F6F4F2",
"!. c #F9F7F5",
"~. c #F9F8F7",
"^. c #FAF8F7",
"/. c #FEFDFD",
"(. c #FEFEFE",
/* pixels */
"H.j.j.j.k.b.C.F.K.R.(.(.(.(.(.(.(.(.(.(.(.(.(.(.(.(.(.(.(.(.(.(.(.(.(.(.(.(.(.(.",
"Z.T o.+.>.1.,.7.g.j.K.(.(.(.(.(.(.(.(.(.(.(.(.(.(.(.(.(.(.(.(.(.(.(.(.(.(.(.(.(.",
"l.0 &.q.e.q.&.i F j.G.(.(.(.(.(.(.(.(.(.(.(.(.(.(.(.(.(.(.(.(.(.(.(.(.(.(.(.(.(.",
"x.X $.q.q.e...X l j.L.(.(.(.(.(.(.(.(.(.(.(.(.(.(.(.(.(.(.(.(.(.(.(.(.(.(.(.(.(.",
"x.+ } w.&.} 0 % U j.E.(.(.(.(.(.(.(.(.(.(.(.(.(.(.(.(.(.(.(.(.(.(.(.(.(.(.(.(.(.",
"x.+ P e.p...o % 5.D.(.(.(.(.(.(.(.(.(.(.(.(.(.(.(.(.(.(.(.(.(.(.(.(.(.(.(.(.(.(.",
"l.o  .0.a.| . % f.U.(.(.(.(.(.(.(.(.(.(.(.(.(.(.(.(.(.(.(.(.(.(.(.(.(.(.(.(.(.(.",
"x.o ..*.p.} . m c.~.(.(.(.(.(.(.(.(.(.(.(.(.(.(.(.(.(.(.(.(.(.(.(.(.(.(.(.(.(.(.",
"Z.% P @.e.{ X [ C.(.(.(.(.(.(.(.(.(.(.(.(.(.(.(.(.(.(.(.(.(.(.(.(.(.(.(.(.(.(.(.",
"G.$ g 8.p.}   7.B.(.(.(.(.(.(.(.(.(.(.(.(.(.(.(.(.(.(.(.(.(.(.(.(.(.(.(.(.(.(.(.",
"H.x d *.e.} o Y j.Y.(.(.~.Q.~.(.(.(.(.(.(.(.(.(.(.(.(.(.(.(.(.(.(.(.(.(.(.(.(.(.",
"H.F o O.q...% % Y u.n.M.b.v.b.F.Y.(.(.(.(.(.(.(.(.(.(.Q.R.U.P.L.I.R.~.(.(.(.(.(.",
"H.Y . } q.*.i 9 X X & z v m m ) i.C.P.Q.(.(.!.R.P.G.B.h.i.y.y.i.g.j.n.G.R.(.(.(.",
"H.Y + I =.0.%.$.$.} j 0 o X   . % F y.c.B.B.k.y._ F t % % o . O t Y y.h.c.G.~.(.",
"H.m 9 E %.q.q.*.%.#.&...P Z w X 9 % % t v l & $ X X 9 C L H s o 9 % $ B s.j.A.~.",
"H.y % H *.w.w.w.q.q.0.#.@.%.{ i X o X X o # 0 i u P @.@.%.O.P j 7 o o . l s.j.K.",
"G.% o H *.w.w.w.w.w.w.w.*.%.O.$.J j g p H { &.%.{ | ..O.{ { { ..{ j 7 X % m h.H.",
"Z.% o <.&.w.w.w.w.w.q.e.w.*.@.O.&.....$.#...@.@.O.@...K O.%...&.O.@.H 7 9 % 4.H.",
"m.% w e...q.w.w.w.w.w.w.w.0.} $.@.@.#.#.@.@.@.@.@.O.O.| { ..} @...} { s p 9 t H.",
"x.% d ....#.q.q.w.q.w.w.w.q.0.%.#.@.@.@.@.@.O.........| | | | J } { { j } 9 . V.",
"m.o 9 I ..#.-.0.9.*.0.w.w.w.w.q.0.@.@.O...I m 3 2 c L | } } { { H ..@.I { o X z.",
"Z.o X { %.%.%.#.&.O.#.q.w.w.w.w.q.#.....L 1 5 5 < , : L { { { { I { { ....X % l.",
"H.t . w ....{ P $.&.} 0.q.q.w.w.q.@.| L > < , < 5 5 < c I I K K K J { @.} w o l.",
"J.5.O X % 9 o o h { } #.&.=.w.q.&.G 4 1 5 5 < , , 5 < < J K K K J J { @.{ i X l.",
"!.F.6.t o 9 9 q X g P | | | &.&.U W : 5 5 < < 5 , , - ; b J J K J H P $.J 8 9 z.",
"(.(.Y.D.6.m + 9 % o 8 K } ..{ { L 2 , < 1 k ; 5 ; * * - 2 J J K H D J } @.i 9 N.",
"(.(.(.(.E.G.6.t X . X J { 9.|  .,._ / Q A = , , * - , - : L R H S S 9.9.} o & G.",
"(.(.(.(.(.(.P.h.m X o f P } $.X.3.5.] ! M ; - ; < 5 , N ' ^ _ ( L I e.&.w o ) H.",
"(.(.(.(.(.(.(.T.v.F % @ q s { P ;.6.' ~ M 5 5 5 5 , 1 :.:.^ 2.3.,.E Z o   x f.H.",
"(.(.(.(.(.(.(.(.E.n.Y . X X f H X.3.! B 5 5 5 5 - 5 6 r.t.' ] 3.;.0 o % % i.j.K.",
"(.(.(.(.(.(.(.(.(.W.B._ % q o o H C y e : < > ; ; : 6 ` ` b y n 0 % % & y.j.C.~.",
"(.(.(.(.(.(.(.(.(.(.!.D.i.m % 9 r e e t & & y & e t l l e e t e y + x i.j.B.Q.(.",
"(.(.(.(.(.(.(.(.(.(.(.(.P.c.6.v % + q r t e e e 9 r y r e t t y n _ f.j.D.!.(.(.",
"(.(.(.(.(.(.(.(.(.(.(.(.(.Q.H.c.y.) m n a V n a + + % r % + x _ d.j.v.L.(.(.(.(.",
"(.(.(.(.(.(.(.(.(.(.(.(.(.(.(.Q.L.C.j.s.6.[ ( Y Y Y ! ) 2.u.h.j.v.H.Q.(.(.(.(.(.",
"(.(.(.(.(.(.(.(.(.(.(.(.(.(.(.(.(.(.W.P.H.S.n.c.j.j.j.j.n.S.H.I.~.(.(.(.(.(.(.(.",
"(.(.(.(.(.(.(.(.(.(.(.(.(.(.(.(.(.(.(.(.(.(.(.(.(.(.(.(.(.(.(.(.(.(.(.(.(.(.(.(.",
"(.(.(.(.(.(.(.(.(.(.(.(.(.(.(.(.(.(.(.(.(.(.(.(.(.(.(.(.(.(.(.(.(.(.(.(.(.(.(.(.",
"(.(.(.(.(.(.(.(.(.(.(.(.(.(.(.(.(.(.(.(.(.(.(.(.(.(.(.(.(.(.(.(.(.(.(.(.(.(.(.(.",
"(.(.(.(.(.(.(.(.(.(.(.(.(.(.(.(.(.(.(.(.(.(.(.(.(.(.(.(.(.(.(.(.(.(.(.(.(.(.(.(."
};
