/* XPM */
static char *e29e1c821e134ffbb2831a87b096beea0Z5tx7Om4Wlr022R[] = {
/* columns rows colors chars-per-pixel */
"40 40 94 2 ",
"   c #279F22",
".  c #2B9E23",
"X  c #319B22",
"o  c #27A223",
"O  c #2CA525",
"+  c #27AA27",
"@  c #2DAB26",
"#  c #27A728",
"$  c #2DA629",
"%  c #27A929",
"&  c #2DAD29",
"*  c #32A525",
"=  c #38A726",
"-  c #32AC26",
";  c #38A927",
":  c #30A629",
">  c #33AD2A",
",  c #39AC2A",
"<  c #2EB227",
"1  c #2DB22A",
"2  c #2EBA2B",
"3  c #33B227",
"4  c #33B827",
"5  c #33B32A",
"6  c #39B42C",
"7  c #34BA2B",
"8  c #3ABA2C",
"9  c #36AE32",
"0  c #3AAD33",
"q  c #2FBB30",
"w  c #36B332",
"e  c #3CB432",
"r  c #37BA31",
"t  c #3CBB33",
"y  c #3FB339",
"u  c #3FBD39",
"i  c #41B436",
"p  c #42BA36",
"a  c #42B53C",
"s  c #48B73F",
"d  c #41B93A",
"f  c #45BB3A",
"g  c #46BD39",
"h  c #44B83C",
"j  c #45BC3C",
"k  c #4ABA3F",
"l  c #36C22B",
"z  c #38C02A",
"x  c #3EC035",
"c  c #47C13B",
"v  c #43C03E",
"b  c #46C03D",
"n  c #45B242",
"m  c #49B641",
"M  c #4DB743",
"N  c #4AB746",
"B  c #48BB41",
"V  c #4CB840",
"C  c #49BE42",
"Z  c #4DBF43",
"A  c #49BB44",
"S  c #4CB844",
"D  c #4BBD44",
"F  c #4DBC4B",
"G  c #52B948",
"H  c #53BD4A",
"J  c #54BB4E",
"K  c #56BE4E",
"L  c #55BE50",
"P  c #59BF55",
"I  c #49C241",
"U  c #4BC340",
"Y  c #4CC142",
"T  c #4DC243",
"R  c #4DC444",
"E  c #4EC54A",
"W  c #50C245",
"Q  c #53C24A",
"!  c #57C04D",
"~  c #54C54D",
"^  c #58C54B",
"/  c #5AC24E",
"(  c #57C450",
")  c #5AC852",
"_  c #5EC559",
"`  c #65C25D",
"'  c #63C75C",
"]  c #6AC962",
"[  c #70CA6A",
"{  c #71D066",
"}  c #74CB70",
"|  c #77CB73",
" . c #80D37C",
".. c #84D37E",
/* pixels */
"F e d j b t c U U Q ..] ] S M G / U ) ( T W p Z e A j P y i , 0 6 i Q K L N ` G ",
"w 5 7 8 8 r x u u E T p f s e w p t h t r 6 8 e 5 5 6 6 : $ O $ : 3 > > 5 e e 6 ",
"9 5 7 6 7 8 8 7 u u R r 5 5 6 e t 7 r 8 8 7 6 7 4 1 & & O O O @ @ @ @ & > 5 6 , ",
"9 h t 8 8 t 8 6 v _ D e 5 6 e p e 7 8 6 8 8 6 1 2 3 1 @ @ + O @ @ @ @ @ - > - 5 ",
"| L [ ^ g p c p Q C B e w e e f f e i 6 t 7 5 5 4 3 @ @ & + # O O @ + @ 5 5 3 - ",
"{ |  .' ) V ! H w J , > 6 h e i e e 0 p 8 7 7 6 5 5 3 @ @ @ @ O * @ @ @ 5 5 3 5 ",
"Z B B ~ Q k , , , $ $ , , > 5 : 7 5 6 8 g 7 7 7 5 - @ @ @ + O O - @ - & 5 6 5 5 ",
"> 9 9 > , , > 5 : $ $ > > 5 - > > 7 8 8 8 7 6 3 4 5 % + O O - * - > 5 5 r 7 7 5 ",
"> : $ $ : > : > # O $ > 5 - O * - 5 6 8 8 7 7 6 3 @ & 1 @ O O @ - > 6 6 6 7 d 7 ",
"O O O O $ $ $ > O O 4 4 3 > O @ - > 8 7 6 6 3 - 3 @ & @ @ O # @ 3 4 @ 5 4 6 4 7 ",
": > O O : , , : > : 4 3 3 @ & & : 5 7 7 2 7 4 3 @ 4 1 1 1 1 @ @ 1 5 6 6 3 4 4 6 ",
"& > : $ > : : , 5 5 4 & @ # & $ 5 5 5 7 4 2 6 5 5 6 4 & 2 & + + O < 4 7 3 < 5 4 ",
"> 5 9 a 0 , 5 ; > 6 6 6 5 $ & # 5 d 4 5 5 2 4 6 7 6 6 2 1 1 + + # # 2 7 4 4 4 5 ",
"0 h 5 7 5 7 7 e , 6 6 6 , > n > 5 6 1 @ 4 1 2 2 4 7 5 2 1 & @ # $ @ + < 4 < 3 - ",
"5 & 1 7 7 7 5 6 6 6 8 6 e m w w $ @ 1 2 1 4 4 7 7 7 7 3 5 & 1 > & @ @ @ @ @ @ 5 ",
"& 1 7 2 7 7 r 6 6 , 6 5 > 0 5 U 5 @ & 2 1 2 1 4 4 7 > - $ @ & & @ O O @ O - 6 7 ",
"2 2 w q 7 7 r 5 5 5 , 5 w 5 4 5 $ > & 5 4 1 5 1 1 - @ $ 5 @ 1 - @ @ # O @ @ 5 4 ",
"1 & & 1 1 1 5 5 & > : 5 t 1 7 1 $ @ @ 1 4 1 4 5 & 3 > 5 @ - - - # # # O O @ - 6 ",
"5 & $ > & & > 5 5 & w > 7 5 1 1 @ + + > & 1 6 4 1 : 1 3 - 3 6 @ O O < O @ O O 4 ",
"1 5 1 & 5 > > > 5 5 , 5 5 5 5 & 1 6 5 6 3 5 4 > 5 - > 4 3 6 - 5 1 3 5 @ @ @ < 5 ",
"5 5 5 & & 6 > @ > $ : $ , & & 2 5 4 5 6 5 6 5 > $ - > 4 4 3 6 3 1 4 5 1 4 @ & & ",
"5 7 5 & > 5 > > & : : $ ; @ & > 7 7 5 5 > > 5 > * - > > 4 6 3 7 5 5 $ 1 5 1 @ 1 ",
"5 2 5 5 7 5 > 5 > ; > * 5 4 4 5 6 7 6 > 6 : O - * - & @ @ > 3 5 1 & & > 5 1 & > ",
"1 1 & 5 1 * : > = > > ; - 1 2 5 7 6 6 > * * : - - @ & < < 1 5 1 $ & > & & 5 5 5 ",
"2 1 @ @ @ O - - = , - ; > 5 5 5 6 , ; * O O O - - O O + + @ - - @ 6 6 & 5 & & 4 ",
"1 1 < < - @ - - ; , ; - = > 4 5 > ; * - O O * * * * @ + @ - - - 5 5 6 5 1 1 1 5 ",
"& 2 2 @ @ @ - - = > = = = = > 6 > 5 - > O O * O * * * O @ - - 3 - 5 4 1 1 1 1 1 ",
"& 2 2 1 @ - @ - > 5 - = * - @ 5 7 3 - - O O O * O * * : > > > - - > 5 6 4 2 1 4 ",
"5 8 7 4 @ @ @ > 3 @ - > @ 5 4 5 6 6 < - @ O O O O @ > : $ - ; 5 6 6 7 7 7 2 7 2 ",
"7 8 7 - @ > 5 5 6 5 5 e 4 4 6 6 6 3 @ O O - * . X O $ & @ O O - 6 6 6 7 q 7 4 5 ",
"8 7 5 & > & 7 5 5 6 w e 7 8 5 @ @ @ $ @ O O X X * O @ - @ @ - - > 6 6 6 7 5 5 > ",
"w 5 e : > 5 7 7 8 6 6 e 7 t 5 O + O @ + 1 O O * - - @ O O @ > - > > 6 , 5 5 > 5 ",
", > > 5 5 4 7 7 8 6 7 7 7 7 5 - & @ @ & + + # # + + @ @ @ - 5 5 5 7 7 5 5 5 > , ",
"w 5 > 5 5 5 4 8 7 7 7 7 7 7 6 5 3 @ # # # # + + + + @ @ @ 3 1 4 5 5 5 5 > > : : ",
"7 5 5 > 7 5 7 l 7 7 7 7 7 7 7 4 O O   # o % # O + @ @ < 2 3 > 5 > > : > ; * - : ",
"7 > > 4 5 7 7 7 7 8 7 7 7 7 3 4 @ O O o O O O @ # @ < < 1 1 < 1 @ > 5 5 > > 5 5 ",
"> - > 8 6 5 6 7 8 6 6 7 7 4 3 - @ # o     . O O @ + < 7 4 2 2 1 1 1 @ @ 7 8 7 8 ",
"- - > 5 3 @ @ z 8 7 < 2 4 5 3 3 5 O o o o . * * - - < 4 7 4 2 1 1 & 1 & @ 3 @ 5 ",
"@ - - > 3 @ < 7 7 4 < < > 3 4 3 4 - O O O O * * * - 4 7 2 2 4 1 < & 2 < @ @ 5 5 ",
"< - - - - - 3 1 4 + & 5 3 4 - - 5 3 > * * * - @ - 5 & 2 4 5 & 1 5 4 < 2 < @ @ & "
};
