/* XPM */
static char *a39ef1068e4d468df5803301f76bda88VrwATDQmamtRgdR1[] = {
/* columns rows colors chars-per-pixel */
"40 40 146 2 ",
"   c #27110C",
".  c #2A130E",
"X  c #3B1607",
"o  c #31160E",
"O  c #3C170A",
"+  c #33180F",
"@  c #3F1C0F",
"#  c #2E1610",
"$  c #311711",
"%  c #341A13",
"&  c #3A1D15",
"*  c #3B1F18",
"=  c #3E2017",
"-  c #3E2119",
";  c #421B0E",
":  c #4A1F0E",
">  c #431F13",
",  c #541F12",
"<  c #4D230F",
"1  c #442215",
"2  c #4A2415",
"3  c #4D2916",
"4  c #45251B",
"5  c #4A261A",
"6  c #47281D",
"7  c #4B2A1D",
"8  c #522512",
"9  c #552B15",
"0  c #5B2D15",
"q  c #522518",
"w  c #532E1C",
"e  c #592E19",
"r  c #573316",
"t  c #5D3116",
"y  c #56311C",
"u  c #5B331B",
"i  c #5C3819",
"p  c #613417",
"a  c #623519",
"s  c #65391B",
"d  c #6A3B1B",
"f  c #4C2B21",
"g  c #522D22",
"h  c #553021",
"j  c #5B3321",
"k  c #603422",
"l  c #643B20",
"z  c #6C3B23",
"x  c #5A441C",
"c  c #6C421E",
"v  c #74431D",
"b  c #7A471D",
"n  c #7C4A1E",
"m  c #7F501E",
"M  c #654222",
"N  c #6E4522",
"B  c #744620",
"V  c #744A21",
"C  c #7C4E22",
"Z  c #7E5324",
"A  c #7E7D33",
"S  c #844D1E",
"D  c #894F1E",
"F  c #814F21",
"G  c #845321",
"H  c #885622",
"J  c #8A5A23",
"K  c #906023",
"L  c #838532",
"P  c #8B8237",
"I  c #8C8A36",
"U  c #878D3C",
"Y  c #8D8C39",
"T  c #918737",
"R  c #948C35",
"E  c #988933",
"W  c #918F38",
"Q  c #8C943A",
"!  c #969036",
"~  c #999236",
"^  c #979738",
"/  c #99963B",
"(  c #98993A",
")  c #9A9E49",
"_  c #908B50",
"`  c #958E59",
"'  c #99955C",
"]  c #9EAB4B",
"[  c #ADB041",
"{  c #A7B34E",
"}  c #AEB34E",
"|  c #B3BD4F",
" . c #A9AF54",
".. c #A5AF5C",
"X. c #A6B65A",
"o. c #AAB45F",
"O. c #ADBA5D",
"+. c #B2B951",
"@. c #BBB954",
"#. c #B0B75E",
"$. c #A6B662",
"%. c #AAB962",
"&. c #B2B763",
"*. c #B3BF63",
"=. c #A9B470",
"-. c #ABB873",
";. c #ABB17B",
":. c #B8BC7F",
">. c #B6C04D",
",. c #BBC45E",
"<. c #B5C164",
"1. c #BDC26E",
"2. c #B4C173",
"3. c #B6B98B",
"4. c #B8B891",
"5. c #B7C285",
"6. c #DEDBA7",
"7. c #E5E3BD",
"8. c #EDEEBC",
"9. c #F0EABB",
"0. c #E8EBC7",
"q. c #E4E6CF",
"w. c #EBE0CD",
"e. c #E4E8CB",
"r. c #EBEBCC",
"t. c #F2EECC",
"y. c #F2F2CE",
"u. c #EBECD3",
"i. c #EBEDDB",
"p. c #F1EED5",
"a. c #F0EFD9",
"s. c #EFF4DF",
"d. c #F3F3D6",
"f. c #F1F2D9",
"g. c #F4F5DF",
"h. c #EDEDE0",
"j. c #F7F5E3",
"k. c #F2F4E5",
"l. c #F5F4E7",
"z. c #FAF9E1",
"x. c #F2F0EB",
"c. c #F4F5EC",
"v. c #F7F8E9",
"b. c #F8F9EC",
"n. c #F9F9F4",
"m. c #FEFDF9",
/* pixels */
"q.c.h.x.i.e.v.r.d.g.m.z.b.s.r.r.l.r.u.r.6.7.9.t.w.p.r.p.j.u.k.n.a.d.f.0.d.d.8.y.",
";.4.3.=.-.%.O.) A  .,.<.2.*.X...5.o.o.#.+.} 1.@.:. .&.[ } &.$.%.X.2.| ] ] { >.| ",
"_ ` ' ' Q Y P % . 4 / I ^ T ~ Y P T I Y ! R E / ( W R Q L ^ Q U Q I I x o 2 ! R ",
"C n G V N Z b % . . 3 c G K S c C Z C c v v G V i w S H v G H F n n Z & . . V S ",
"d d n C s d i . . % y c Z C m r C G C H N v N h 5 y N S G C D J B n G & . + V B ",
"b n v V s 2 . . . 4 5 7 v N v 7 n V u c s j M 7 & = 1 r v l v b n S b . . & l h ",
"z u y w 2 . . . & 6 7 7 7 w l y d y 7 7 6 7 $   . . . . . 2 y d s u 5 . . - h f ",
"h f 7 6 # .   - 6 7 7 f 5 5 5 w 5 5 5 7 1 . . . .     . . . % 3 7 7 5 . . * 6 w ",
"6 1 5 1 . . . 1 3 > 7 1 3 1 1 1 1 1 2 1 . . .   . = * & . . . & ; > 1 . . $ > 4 ",
"5 1 5 2 . . . o o $ . . . o > 1 1 @ 2 1 . . $ * > 5 1 1 &   . # > 5 2 . . . 1 7 ",
"f 7 6 6 - . . . . . . . . . . 6 7 6 6 1 . . & 1 7 7 7 7 6 $ .   7 7 7 % . . 4 7 ",
"7 7 7 7 7 & . . .   . # . . . % 7 7 7 6 . . . = 7 f f 7 7 & . . 5 7 7 -   . & f ",
"f 5 6 f f f 6 1 1 7 w 7 6 . . . 4 g f g 1   . . % 7 g f f * . . * w 5 6   . o f ",
"f > 1 q 7 7 f 6 7 6 5 1 1 & . . . 5 w w f - . .   & w f f - . . > 8 1 4 . . . 7 ",
"7 3 5 > 7 7 f 1 & 5 O 2 7 2 . . . & 7 7 f q 1 . . . 5 2 5 % . . > 5 5 5 . . . f ",
"q q 5 w 5 % . . . . o & 2 5 1   . o > 1 2 q 5 $ . . 4 4 2 & . . 1 ; > 1 . . # 2 ",
"f f f - . . . . . . . . . # . .   & 7 7 6 g y & . . 1 f f 1   . $ 6 7 & . . % f ",
"f f * . . . . . . . . . . . . . # 6 7 6 6 7 7 # . . 4 7 6 6 . . . . # . .   4 f ",
"6 5 . . . % 1 6 6 6 5 & % . . & 6 6 6 5 5 4 # . . $ 7 7 7 6 - . . . . . . % 6 7 ",
"5 - . . % 6 5 6 6 6 7 5 6 7 7 6 5 5 6 7 6 . . . # 6 7 6 f 6 6 4 . . . . & 6 f 7 ",
"6 - . . $ 6 7 5 - % # . # # - 4 6 6 5 7 * . . . 4 6 6 7 f 6 6 5 6 4 6 6 7 7 f 7 ",
"7 4 . . . . . .     . . . . . . - 6 1 6 . . . 1 6 6 7 6 f 6 7 5 5 6 4 5 f 7 g 7 ",
"7 6 - . . . . . . . . . . . . . . 6 7 &   . $ 6 5 f 7 5 6 5 6 6 4 6 5 5 5 5 6 6 ",
"7 7 7 7 % . . . $ 4 4 6 7 6 . . . 5 7 % .   - 6 7 f f 7 f g 7 7 f 6 7 4 7 5 7 7 ",
"f w f f 7 7 7 7 f f 7 7 g 6 . .   4 f 1 . . $ 5 7 7 f w f g g f 7 6 7 7 5 6 6 w ",
"7 w w 7 7 7 5 5 - 5 1 6 5 . . . # f h 7 # . . . & % 1 5 1 & 1 6 6 5 7 g w f 7 g ",
"g f f j 7 &   . . . .     . . . w 7 w f - . . . . . . . . .     . . 1 7 7 f f g ",
"f f y z % . . . . . . . . . . 7 7 7 g 7 f 6 $ .     . . . .   . . . . . % f f f ",
"w f f 5 . . . % * % & & & 6 y g y g g f g f f 7 5 1 & & & & * * # . . . . % g g ",
"f f g % .   - f 7 7 7 w 7 h k f j g g j 7 % % & 5 g f g g g g f j f % . . . 4 f ",
"7 f f $ .   - 7 1 = #   . + 3 f 7 7 - #   . . . . % - 6 g h f f f g f 1   . & 7 ",
"f 7 6 % . .       . . . . . . . % # . . .   . . . .   . % % & = 1 - & . . . * f ",
"f 7 7 5 % . . . . . . % +   . . . . . . % 5 6 & # . . . . . . . . . . . . . 6 6 ",
"u 5 y w i 2 o + & & 4 w y 3 o o + o # 1 w 7 7 7 7 5 % .   . .   . .     # r 7 f ",
"u r 7 7 y s r y y 7 7 a r u w e w y r 7 y r w a y s r i y 9 5 - = 1 3 4 y i u 7 ",
"d 3 7 5 a e r t s y s d s s s w r r e r i r s w y y r i t r 7 f i i r i i a q w ",
"y 9 e e e 2 0 0 w w u a r a r s d t i e a p s 5 5 s i 2 8 e w w a i e e r 8 < r ",
"s 7 r e 5 t e e e t 9 t 0 p d t 9 0 a r d e p : t 8 e e 9 X 5 9 t s s t ; 0 t a ",
"p t 9 8 3 9 8 9 : 3 e 0 2 a s 0 p e 0 t 9 e e t e 1 9 p 0 9 e 3 9 0 s p s p , 0 ",
"s a t t e r e y t e a d s d s d d d d e a e t 9 p e s t 2 d 5 p e s 0 a d a p p "
};
