/* XPM */
static char *_0a663b801d741558c28bfac86836b34xNGdCFV037yPB0QU[] = {
/* columns rows colors chars-per-pixel */
"40 40 144 2 ",
"   c #5D544C",
".  c #62564B",
"X  c #60574E",
"o  c #665B4F",
"O  c #635A53",
"+  c #675D54",
"@  c #695E53",
"#  c #6A5F54",
"$  c #6A6057",
"%  c #6D6257",
"&  c #696059",
"*  c #6E6359",
"=  c #6F6459",
"-  c #70655B",
";  c #72675D",
":  c #73685E",
">  c #74695F",
",  c #716A62",
"<  c #756A60",
"1  c #776C62",
"2  c #786D63",
"3  c #796F65",
"4  c #776F68",
"5  c #7B7167",
"6  c #7F7165",
"7  c #7B726A",
"8  c #7E736A",
"9  c #7F746B",
"0  c #7A736D",
"q  c #7B746E",
"w  c #7F756D",
"e  c #7E7770",
"r  c #807266",
"t  c #827467",
"y  c #84776B",
"u  c #80766E",
"i  c #8C7C6B",
"p  c #897B6C",
"a  c #8B7C6D",
"s  c #837970",
"d  c #857B73",
"f  c #867D74",
"g  c #90806F",
"h  c #8A8078",
"j  c #8D837B",
"k  c #958473",
"l  c #978674",
"z  c #988673",
"x  c #9B8A77",
"c  c #91877F",
"v  c #A08E7A",
"b  c #A7937E",
"n  c #928A81",
"m  c #988F88",
"M  c #98928D",
"N  c #9C9792",
"B  c #AB9680",
"V  c #B39D85",
"C  c #B59F87",
"Z  c #A09891",
"A  c #A29B94",
"S  c #A49D96",
"D  c #A29D98",
"F  c #A59E98",
"G  c #BAA38A",
"H  c #B3ADA7",
"J  c #B5AFAA",
"K  c #B8B3AE",
"L  c #BAB4AF",
"P  c #BBB5B0",
"I  c #BCB7B3",
"U  c #BDB8B3",
"Y  c #BFBAB5",
"T  c #C2A98F",
"R  c #C3AA90",
"E  c #C5AC91",
"W  c #C8AE92",
"Q  c #CAB094",
"!  c #CDB396",
"~  c #CFB497",
"^  c #D3B89A",
"/  c #D5BA9B",
"(  c #DABE9F",
")  c #DCBF9F",
"_  c #C9B6A2",
"`  c #DABFA1",
"'  c #C3BEBB",
"]  c #DEC1A1",
"[  c #DFC7AE",
"{  c #C4C0BB",
"}  c #C7C3BF",
"|  c #E0C2A2",
" . c #E1C5A7",
".. c #E1C6A9",
"X. c #E4CEB6",
"o. c #E6CFB8",
"O. c #E7D2BA",
"+. c #E2D1BD",
"@. c #E8D3BC",
"#. c #C6C3C0",
"$. c #C7C4C1",
"%. c #CBC7C4",
"&. c #CDC9C6",
"*. c #CECBC9",
"=. c #D1CECB",
"-. c #DFD7CE",
";. c #D6D3D0",
":. c #D8D5D2",
">. c #DBD9D7",
",. c #DCD9D6",
"<. c #DBD9D8",
"1. c #DDDAD8",
"2. c #E7D6C3",
"3. c #EBDAC7",
"4. c #E6D9CC",
"5. c #EDDCCB",
"6. c #EFDFCC",
"7. c #E1DFDD",
"8. c #EBE1D7",
"9. c #EEE3D7",
"0. c #E3E1DE",
"q. c #F2E7DB",
"w. c #F3EADF",
"e. c #E5E3E1",
"r. c #E7E5E3",
"t. c #E7E6E5",
"y. c #E9E7E6",
"u. c #E9E8E6",
"i. c #EBE9E8",
"p. c #ECEBE9",
"a. c #EEECEB",
"s. c #EFEEED",
"d. c #F0E9E0",
"f. c #F2EBE4",
"g. c #F3ECE4",
"h. c #F5EFE7",
"j. c #F9F3EE",
"k. c #F3F2F1",
"l. c #F7F6F6",
"z. c #F9F6F3",
"x. c #FBF7F4",
"c. c #FBF9F7",
"v. c #F9F8F8",
"b. c white",
/* pixels */
"b.b.b.b.b.b.b.b.b.b.Y f l.b.b.b.b.b.b.b.b.b.b.b.b.b.b.b.b.b.b.b.b.b.b.b.b.b.b.b.",
"b.b.b.b.b.b.b.b.b.b.K o &.b.b.b.b.b.b.b.b.b.b.b.b.b.b.b.b.b.b.b.b.b.b.b.b.b.b.b.",
"b.b.b.b.b.b.b.b.b.b.L > < J l.b.b.b.b.b.b.b.b.b.b.b.b.b.b.b.b.b.b.b.b.b.b.b.b.b.",
"b.b.b.b.b.b.b.b.b.b.J > : : 5 S } r.b.b.b.b.b.b.b.b.b.b.b.b.b.b.b.b.b.b.b.b.b.b.",
"b.b.b.b.b.b.b.0.{ ' A > - @ o = : : s L l.b.b.b.b.b.b.b.b.b.b.b.b.b.b.b.b.b.b.b.",
"b.b.b.b.b.b.b.u.I ' U > % @ = % ; : : : 8 ;.b.b.b.b.b.b.b.b.b.b.b.b.b.b.b.b.b.b.",
"b.b.b.b.b.b.b.v.p.Y ' 9 - @ * : : ; : : : < =.b.b.b.b.b.b.b.b.b.b.b.b.b.b.b.b.b.",
"b.b.b.b.b.b.b.b.b.b.b.Z : % ; : : % = : : : 3 a.b.b.b.b.b.b.b.b.b.b.b.b.b.b.b.b.",
"b.b.b.b.b.b.b.b.b.b.b.:.1 : : : : = . # : : : H b.b.b.b.b.b.b.b.b.b.b.b.b.b.b.b.",
"b.b.b.b.b.b.b.b.b.b.b.b.m : : = ; : : : : : : c b.b.b.b.b.b.b.b.b.b.b.b.b.b.b.b.",
"b.b.b.b.b.b.b.b.b.b.b.b.i.d ; @ ; : : : : : : h b.b.b.b.b.b.b.b.b.b.b.b.b.b.b.b.",
"b.b.b.b.b.b.b.b.b.b.b.b.b.y.< ; : : : : : : : w b.b.b.b.b.b.b.b.b.b.b.b.b.b.b.b.",
"b.b.b.b.b.b.b.b.b.b.b.b.b.b.c : : : : : : : ; * e.b.b.b.b.b.b.b.b.b.b.b.b.b.b.b.",
"b.b.b.b.b.b.b.b.b.b.b.b.b.b.1.2 : : : : : : ; ; u i.b.b.b.b.b.b.b.b.b.b.b.b.b.b.",
"b.b.b.b.b.b.b.b.b.b.b.b.b.b.b.&.< : : : : : : : ; j l.b.b.b.b.b.b.b.b.b.b.b.b.b.",
"b.b.b.b.b.b.b.b.b.b.b.b.b.b.b.#.* * ; : : : : : ; = F b.b.b.b.b.b.b.b.b.b.b.b.b.",
"b.b.b.b.b.b.b.b.b.b.b.b.b.b.b.0 = : : : : : : : ; - < %.b.b.b.b.b.b.b.b.b.b.b.b.",
"b.b.b.b.b.b.b.b.b.b.b.b.b.b.*.X * : : : : : : : : ; ; 7 k.b.b.b.b.b.b.b.b.b.b.b.",
"b.b.b.b.b.b.b.b.b.b.b.b.b.b.N   $ : : : : : : : : : ; ; P b.b.b.b.b.b.b.b.b.b.b.",
"b.b.b.b.b.b.b.b.b.b.b.b.b.b.,   * : : : : : = : : : = : f v.b.b.b.b.b.b.b.b.b.b.",
"b.b.b.b.b.b.b.b.b.b.b.b.b.p.&   = : : : : : * : : : * : ; :.b.b.b.b.b.b.b.b.b.b.",
"b.b.b.b.b.b.b.b.b.b.b.b.b.;.O X ; : : : : : * : : : * : > K b.b.b.b.b.b.b.b.b.b.",
"b.b.b.b.b.b.b.b.b.b.b.b.b.-.z % : : : : : : * : : : * : ; n b.b.b.b.b.b.b.b.b.b.",
"b.b.b.b.b.b.b.b.b.b.b.b.j. .) 6 : : : : : 2 b C v < * : = 8 i.b.b.b.b.b.b.b.b.b.",
"b.b.b.b.b.b.b.b.b.b.b.b.3.| T > : : : : 1 ! ] ] ] E ; : : 5 e.b.b.b.b.b.b.b.b.b.",
"b.b.b.b.b.b.b.b.b.b.b.b.O.| v ; : : : : x ( / / ] ] k : ; : &.b.b.b.b.b.b.b.b.b.",
"b.b.b.b.b.b.b.b.b.b.b.b.5.] p ; : : : : x b T G R ^ l : ; ; ,.b.b.b.b.b.b.b.b.b.",
"b.b.b.b.b.b.b.b.b.b.b.b.x._ 2 : : : : ; t 6 V B g W 2 : : : ,.b.b.b.b.b.b.b.b.b.",
"b.b.b.b.b.b.b.b.b.b.b.b.v.w ; : : : - - : : > > : r ; : : 8 y.b.b.b.b.b.b.b.b.b.",
"b.b.b.b.b.b.b.b.b.b.b.b.<.O - : : ; = : : : : : : : : : = s b.b.b.b.b.b.b.b.b.b.",
"b.b.b.b.b.b.b.b.b.b.b.b.;.O * : : = ; : : : : : ; : : : : P b.b.b.b.b.b.b.b.b.b.",
"b.b.b.b.b.b.b.b.b.b.b.b.t.& + : : ; : : : : : : ; ; : : 9 s.b.b.b.b.b.b.b.b.b.b.",
"b.b.b.b.b.b.b.b.b.b.b.w.6.y   ; : ; : : : : : : * : : < # q >.b.b.b.b.b.b.b.b.b.",
"b.b.b.b.b.b.b.b.b.z.X.] ] ~ i E ( Q V a : : : ; * : j 7.s.D + $.b.b.b.b.b.b.b.b.",
"b.b.b.b.b.b.b.b.b.f.g.+.O.` [ q.....] ] B < n =.1.y.b.b.b.b.P 7 l.b.b.b.b.b.b.b.",
"b.b.b.b.b.b.b.b.b.b.b.b.c.d.b.4.9.h.o.X.@.b.b.b.b.b.b.b.b.b.k.4 u.b.b.b.b.b.b.b.",
"b.b.b.b.b.b.b.b.b.b.b.b.b.b.b.c.b.8.x.2.b.b.b.b.b.b.b.b.b.b.l.e i.b.b.b.b.b.b.b.",
"b.b.b.b.b.b.b.b.b.b.b.b.b.b.b.b.b.b.b.b.b.b.b.b.b.b.b.b.b.b.;.s b.b.b.b.b.b.b.b.",
"b.b.b.b.b.b.b.b.b.b.b.b.b.b.b.b.b.b.b.b.b.b.b.b.b.b.b.b.b.i.s 7.b.b.b.b.b.b.b.b.",
"b.b.b.b.b.b.b.b.b.b.b.b.b.b.b.b.b.b.b.b.b.b.b.b.b.b.b.b.' M 0.b.b.b.b.b.b.b.b.b."
};
