/* XPM */
static char *_2cd136ad4bb4b32abaafe6f62211db1RwV1EOTlyGJZACeB[] = {
/* columns rows colors chars-per-pixel */
"40 40 173 2 ",
"   c #161219",
".  c #231A26",
"X  c #2A1F2E",
"o  c #2E2F2F",
"O  c #2E2132",
"+  c #332537",
"@  c #342638",
"#  c #36293A",
"$  c #3A2839",
"%  c #452F3B",
"&  c #5C3C3F",
"*  c #3D2E41",
"=  c #3E3142",
"-  c #423545",
";  c #47374A",
":  c #463949",
">  c #4B3B4D",
",  c #503344",
"<  c #4D4151",
"1  c #544456",
"2  c #574659",
"3  c #5B4D5D",
"4  c #5B505E",
"5  c #6C5A6B",
"6  c #6A606D",
"7  c #6D6270",
"8  c #7A667A",
"9  c #7A717C",
"0  c #EC2633",
"q  c #EB2D39",
"w  c #94513A",
"e  c #9A563D",
"r  c #9D593F",
"t  c #8D5847",
"y  c #9F5A40",
"u  c #9C5E49",
"i  c #A35D42",
"p  c #AF5E54",
"a  c #926154",
"s  c #AC6346",
"d  c #A56148",
"f  c #B06748",
"g  c #B56B4B",
"h  c #BA6E4C",
"j  c #BE714F",
"k  c #AF725E",
"l  c #BE7556",
"z  c #B8755A",
"x  c #BE795A",
"c  c #95747D",
"v  c #AB7663",
"b  c #AA7468",
"n  c #AD6D78",
"m  c #F14955",
"M  c #C0734F",
"N  c #C37551",
"B  c #C57956",
"V  c #C87853",
"C  c #CC765A",
"Z  c #C57C5B",
"A  c #D35461",
"S  c #EF5761",
"D  c #D97268",
"F  c #C16873",
"G  c #EF6E74",
"H  c #EB7374",
"J  c #F5747C",
"K  c #6E9C42",
"L  c #729F48",
"P  c #75A24B",
"I  c #7EA757",
"U  c #B2C439",
"Y  c #81A95C",
"T  c #83816D",
"R  c #878572",
"E  c #89AE66",
"W  c #8FB26C",
"Q  c #94B573",
"!  c #99BA7B",
"~  c #CA8362",
"^  c #CC8A6B",
"/  c #C89C7B",
"(  c #D19275",
")  c #D49679",
"_  c #B7C848",
"`  c #BCCB52",
"'  c #C0CE5E",
"]  c #C5D36A",
"[  c #C8D574",
"{  c #856F84",
"}  c #847385",
"|  c #8A7489",
" . c #887988",
".. c #F57C85",
"X. c #969483",
"o. c #979099",
"O. c #9DBC80",
"+. c #A2BF86",
"@. c #BBB88F",
"#. c #A59FA7",
"$. c #ACA7AE",
"%. c #B0ABB2",
"&. c #BCB8BE",
"*. c #C29787",
"=. c #CD9C82",
"-. c #DB9380",
";. c #D79C81",
":. c #F7888F",
">. c #F68890",
",. c #F59299",
"<. c #DBA68E",
"1. c #C7A092",
"2. c #DBAA93",
"3. c #DEB19D",
"4. c #F89BA2",
"5. c #DFACA0",
"6. c #EBACA8",
"7. c #E3B5A7",
"8. c #E2BDAD",
"9. c #F8B8BC",
"0. c #A5C28A",
"q. c #B3CB9C",
"w. c #B9C9A7",
"e. c #BBD0A6",
"r. c #BED2AA",
"t. c #CFDA85",
"y. c #D5DF8F",
"u. c #D4DE95",
"i. c #C1D4AE",
"p. c #C5C4BB",
"a. c #C8D4B5",
"s. c #C7D9B7",
"d. c #CBDBBB",
"f. c #E6C5B6",
"g. c #E7C9BB",
"h. c #DBE4AF",
"j. c #E1E8B3",
"k. c #C2BFC3",
"l. c #CDCACE",
"z. c #CFDEC0",
"x. c #D6DAC8",
"c. c #D7D4D8",
"v. c #DAD7DA",
"b. c #DCDADD",
"n. c #EACFC3",
"m. c #EAD0C3",
"M. c #ECD6CB",
"N. c #F5DBDA",
"B. c #D3E1C6",
"V. c #DEE7C5",
"C. c #DAE5CF",
"Z. c #DCE6D1",
"A. c #DEE9D4",
"S. c #E3EAC4",
"D. c #E1E5D9",
"F. c #E3ECDB",
"G. c #F3E4DC",
"H. c #F1F4DC",
"J. c #E6E4E4",
"K. c #E8E6E8",
"L. c #EDECED",
"P. c #FDE4E6",
"I. c #F5EAE4",
"U. c #F8EEEA",
"Y. c #EDF2E7",
"T. c #EEF3E9",
"R. c #F4F5EA",
"E. c #F9F1ED",
"W. c #F5F5F2",
"Q. c #FCF6F4",
"!. c #F6F9F3",
"~. c #FAFAF6",
"^. c #FFFFFF",
/* pixels */
"^.^.^.^.^.^.^.^.^.^.^.^.^.^.^.^.^.^.^.^.^.^.^.^.^.^.^.^.^.^.^.^.^.^.^.^.^.^.^.^.",
"^.^.^.^.^.^.^.^.^.^.^.^.^.^.^.^.^.^.^.^.^.^.^.^.^.^.^.^.^.^.^.^.^.^.^.^.^.^.^.^.",
"^.^.^.^.^.^.^.^.^.^.^.^.^.^.^.^.^.^.^.^.^.^.^.^.^.^.^.^.^.^.^.^.^.^.^.^.^.^.^.^.",
"^.^.^.^.^.^.^.^.^.^.^.~.W.^.^.^.^.^.^.^.^.^.^.^.^.^.^.^.^.^.^.^.^.^.^.^.^.^.^.^.",
"^.^.^.^.^.^.^.^.^.^.^.K.k.^.^.^.^.^.^.^.^.c.K.^.^.^.^.^.^.^.^.^.^.^.^.^.^.^.^.^.",
"^.^.^.^.^.^.^.^.^.^.^.^.L.~.^.^.b. .< : : 4 L.^.^.^.^.^.^.^.^.^.^.^.^.^.^.^.^.^.",
"^.^.^.^.^.^.^.^.^.^.^.^.P.,.N.$.= @ @ @ @ @ < v.^.^.^.^.^.^.^.^.^.^.^.^.^.^.^.^.",
"^.^.^.^.^.^.^.^.^.^.^.^.4.A , # @ O . @ @ @ @ : L.^.^.^.^.^.^.^.^.^.^.^.^.^.^.^.",
"^.^.^.^.^.^.^.^.^.^.^.^.5 $ @ + @   o O @ @ @ @ o.^.^.^.^.^.^.^.^.^.^.^.^.^.^.^.",
"^.^.^.^.^.^.^.^.^.^.^.^.7 @ + O @ O . + @ @ @ @ 3 ^.^.^.F.Y.^.^.^.^.^.^.^.^.^.^.",
"^.^.^.^.^.^.^.^.^.^.^.^.&.# X + @ @ @ @ @ @ @ @ @ W.^.F.L ! ^.^.^.^.^.^.^.^.^.^.",
"^.^.^.^.^.^.^.^.^.^.^.^.^.6 + @ @ @ @ @ @ @ @ @ @ J.^.T.K Q ^.^.^.^.^.^.^.^.^.^.",
"^.^.^.^.^.^.^.^.^.^.^.^.^.} @ @ @ @ @ @ @ @ @ @ @ l.^.!.O.q.Q.Q.^.^.j.t.H.^.^.^.",
"^.^.^.^.^.^.^.^.^.^.^.^.^.c.@ @ @ + * 2 > + @ @ @ &.i.I A.a.S J ^.^._ U [ ^.^.^.",
"^.^.^.^.^.^.^.^.^.^.^.^.^.^.- @ @ ; { | | 3 @ @ @ #.F.W E D m 9.^.^.U U [ ^.^.^.",
"^.^.^.^.^.^.^.^.^.^.^.^.^.^.@ @ + 8 | | | } * @ @ 1 v.~.F.x.Q.^.^.^.' U h.^.^.^.",
"^.^.^.r.e.^.^.^.^.^.^.^.^.b.@ @ - | | | | | 1 @ @ 3 v.^.F.Y.^.Q.N.^.u.` ^.C.!.^.",
"^.^.F.K K ^.^.^.^.^.^.^.^.%.@ @ > | | | | | 5 @ @ - ^.^.C.Y.^.,.q ,.V.S.e.K 0.^.",
"^.^.!.K L ^.^.^.^.^.^.^.^.9 @ @ > | | | | | 8 @ @ @ b.^.C.Y.^.4.0 0 6.r.K K q.^.",
"^.R.~.! Q ^.~.^.^.^.P.>.:.= @ @ 1 | | | | | } @ @ @ n ..5.Y.^.^.9.J G Q 0.z.^.^.",
"^.` ] Y.r.0.Y ^.U.3.-.H F + $ & 3 | | c z l b @ + % p J 6.Z.^.^.^.^.Q.a.^.^.^.^.",
"^.y.U u.! K W Q.^ N N N a t u N k z z l N N N d g g N C Z Z n.^.^.^.^.B.^.~.J.^.",
"^.^.R.h.i.A.~.f.N N N N N N N N N N N N N N N N s e h N N N Z Q.^.^.^.s.L.X.R D.",
"^.~.^.Z.W.^.^.^ N N N N N N N N N N N N N N N N s e h i g N N 7.^.^.^.a.X.T R J.",
"z.P d.d.^.^.G.N N y r N N N N N N N N h g N N N N N N s h N N Z W.^.^.w.p.x.L.^.",
"F.I P +.^.^.8.N N d i N N N N N N N N g g N N N N N N N N N N N 8.^.^.s.^.^.^.^.",
"^.~.W.i.^.^.( N N N N N h g N N N N N N N N N N N N N N N N N N ^ ^.^.z.^.^.^.^.",
"^.^.^.s.^.U.N N N N N N w w g N N N N N N N N N N N N N N N N N N N.^.d.^.^.^.^.",
"^.^.^.z.^.2.N N N N N N i r j N N N N N N N N N N N N N N N N N N 3.^.d.^.^.^.^.",
"^.^.^.B.I.N N N N N N N N N N N N N N N N N N N N N N N N N j w j ~ F.F.^.^.^.^.",
"^.^.^.A.=.N N N N N N N N N N N N N N N N N N N N j N N N N N j N N @.^.^.^.^.^.",
"^.^.^.I.N N j N N N N N N N N N N N N N N N N N r w h N N N N N N N / ^.^.^.^.^.",
"^.^.^.2.N M e M N N N N N N N N N N N N N N N N g s N N h f g N N N B E.^.^.^.^.",
"^.^.~.B N N N N s r s N g i s N N N N N N N N N N N N f w w w y N N N 7.^.^.^.^.",
"^.^.M.N N N N g w w w x i w w j N N N V B N N N N N N i w w w w N V g.I.^.^.^.^.",
"^.^.Q.3.;.( ) <.*.v 1.m.Z z Z ( ;.2.f.I.G.~ N N N N Z =.v e u 1.f.I.^.^.^.^.^.^.",
"^.^.^.^.^.Q.Q.^.^.~.^.^.Q.Q.Q.Q.^.^.^.^.^.E.M.M.M.G.Q.Q.~.W.W.^.^.^.^.^.^.^.^.^.",
"^.^.^.^.^.^.^.^.^.^.^.^.^.^.^.^.^.^.^.^.^.^.^.^.^.^.^.^.^.^.^.^.^.^.^.^.^.^.^.^.",
"^.^.^.^.^.^.^.^.^.^.^.^.^.^.^.^.^.^.^.^.^.^.^.^.^.^.^.^.^.^.^.^.^.^.^.^.^.^.^.^.",
"^.^.^.^.^.^.^.^.^.^.^.^.^.^.^.^.^.^.^.^.^.^.^.^.^.^.^.^.^.^.^.^.^.^.^.^.^.^.^.^."
};
